<mxfile host="app.diagrams.net" agent="Mozilla/5.0 (Windows NT 10.0; Win64; x64) AppleWebKit/537.36 (KHTML, like Gecko) Chrome/136.0.0.0 Safari/537.36" version="27.0.5">
  <diagram name="Página-1" id="tM3ftosBq5wTvWjN4mbQ">
    <mxGraphModel dx="1226" dy="715" grid="1" gridSize="10" guides="1" tooltips="1" connect="1" arrows="1" fold="1" page="1" pageScale="1" pageWidth="1169" pageHeight="1654" math="0" shadow="0">
      <root>
        <mxCell id="0" />
        <mxCell id="1" parent="0" />
        <mxCell id="7ZSRkaOjpOQk4Y71W81P-2" value="&lt;div&gt;&quot;CONFIGURAÇÕES&lt;/div&gt;&lt;div&gt;1. Conta&lt;/div&gt;&lt;div&gt;&lt;span style=&quot;background-color: transparent; color: light-dark(rgb(0, 0, 0), rgb(255, 255, 255));&quot;&gt;2. Perfil MUTARE&quot;&lt;/span&gt;&lt;/div&gt;" style="shape=document;whiteSpace=wrap;html=1;boundedLbl=1;" parent="1" vertex="1">
          <mxGeometry x="717.5" y="170" width="150" height="70" as="geometry" />
        </mxCell>
        <mxCell id="7ZSRkaOjpOQk4Y71W81P-9" style="edgeStyle=orthogonalEdgeStyle;rounded=0;orthogonalLoop=1;jettySize=auto;html=1;exitX=0.5;exitY=1;exitDx=0;exitDy=0;exitPerimeter=0;entryX=0.5;entryY=0;entryDx=0;entryDy=0;" parent="1" source="7ZSRkaOjpOQk4Y71W81P-4" edge="1" target="7ZSRkaOjpOQk4Y71W81P-10">
          <mxGeometry relative="1" as="geometry">
            <mxPoint x="812.5" y="400" as="targetPoint" />
            <mxPoint x="810" y="300" as="sourcePoint" />
          </mxGeometry>
        </mxCell>
        <mxCell id="7ZSRkaOjpOQk4Y71W81P-12" style="edgeStyle=orthogonalEdgeStyle;rounded=0;orthogonalLoop=1;jettySize=auto;html=1;exitX=1;exitY=0.5;exitDx=0;exitDy=0;entryX=0;entryY=0.5;entryDx=0;entryDy=0;" parent="1" source="7ZSRkaOjpOQk4Y71W81P-10" edge="1">
          <mxGeometry relative="1" as="geometry">
            <mxPoint x="870" y="450" as="targetPoint" />
          </mxGeometry>
        </mxCell>
        <mxCell id="7ZSRkaOjpOQk4Y71W81P-19" style="edgeStyle=orthogonalEdgeStyle;rounded=0;orthogonalLoop=1;jettySize=auto;html=1;exitX=0;exitY=0.5;exitDx=0;exitDy=0;" parent="1" source="7ZSRkaOjpOQk4Y71W81P-10" target="7ZSRkaOjpOQk4Y71W81P-15" edge="1">
          <mxGeometry relative="1" as="geometry">
            <Array as="points">
              <mxPoint x="430" y="450" />
            </Array>
          </mxGeometry>
        </mxCell>
        <mxCell id="7ZSRkaOjpOQk4Y71W81P-10" value="&amp;nbsp;Escolha igual a 1?" style="rhombus;whiteSpace=wrap;html=1;" parent="1" vertex="1">
          <mxGeometry x="737.03" y="400" width="100.94" height="100" as="geometry" />
        </mxCell>
        <mxCell id="7ZSRkaOjpOQk4Y71W81P-14" style="edgeStyle=orthogonalEdgeStyle;rounded=0;orthogonalLoop=1;jettySize=auto;html=1;exitX=1;exitY=0.5;exitDx=0;exitDy=0;entryX=0;entryY=0.5;entryDx=0;entryDy=0;" parent="1" source="7ZSRkaOjpOQk4Y71W81P-15" edge="1">
          <mxGeometry relative="1" as="geometry">
            <mxPoint x="514.0000000000132" y="620" as="targetPoint" />
          </mxGeometry>
        </mxCell>
        <mxCell id="7ZSRkaOjpOQk4Y71W81P-15" value="Escolha igual a 2?" style="rhombus;whiteSpace=wrap;html=1;" parent="1" vertex="1">
          <mxGeometry x="380" y="570" width="100" height="100" as="geometry" />
        </mxCell>
        <mxCell id="7ZSRkaOjpOQk4Y71W81P-20" style="edgeStyle=orthogonalEdgeStyle;rounded=0;orthogonalLoop=1;jettySize=auto;html=1;exitX=1;exitY=0.5;exitDx=0;exitDy=0;entryX=0;entryY=0.5;entryDx=0;entryDy=0;" parent="1" target="7ZSRkaOjpOQk4Y71W81P-22" edge="1">
          <mxGeometry relative="1" as="geometry">
            <mxPoint x="401.5600000000002" y="648" as="sourcePoint" />
          </mxGeometry>
        </mxCell>
        <mxCell id="7ZSRkaOjpOQk4Y71W81P-28" style="edgeStyle=orthogonalEdgeStyle;rounded=0;orthogonalLoop=1;jettySize=auto;html=1;exitX=0;exitY=0.5;exitDx=0;exitDy=0;entryX=0.5;entryY=0;entryDx=0;entryDy=0;" parent="1" target="7ZSRkaOjpOQk4Y71W81P-26" edge="1">
          <mxGeometry relative="1" as="geometry">
            <mxPoint x="309.6900000000003" y="648" as="sourcePoint" />
          </mxGeometry>
        </mxCell>
        <mxCell id="7ZSRkaOjpOQk4Y71W81P-25" style="edgeStyle=orthogonalEdgeStyle;rounded=0;orthogonalLoop=1;jettySize=auto;html=1;exitX=1;exitY=0.5;exitDx=0;exitDy=0;entryX=0;entryY=0.5;entryDx=0;entryDy=0;" parent="1" target="7ZSRkaOjpOQk4Y71W81P-27" edge="1">
          <mxGeometry relative="1" as="geometry">
            <mxPoint x="342.18000000000006" y="760" as="sourcePoint" />
          </mxGeometry>
        </mxCell>
        <mxCell id="7ZSRkaOjpOQk4Y71W81P-30" value="&lt;div&gt;&lt;br&gt;&lt;/div&gt;&lt;div&gt;&lt;font style=&quot;font-size: 14px;&quot;&gt;&quot;Dígito inválido. Digite novamente.&quot;&lt;/font&gt;&lt;/div&gt;" style="shape=document;whiteSpace=wrap;html=1;boundedLbl=1;" parent="1" vertex="1">
          <mxGeometry x="210" y="585" width="130" height="70" as="geometry" />
        </mxCell>
        <mxCell id="CyyOgFIPkW3TxfJR1gr0-5" value="" style="group" parent="1" vertex="1" connectable="0">
          <mxGeometry x="710" y="260" width="157.5" height="40" as="geometry" />
        </mxCell>
        <mxCell id="_0cxiAFkDxXxnWQI2h8j-1" value="" style="group" parent="CyyOgFIPkW3TxfJR1gr0-5" vertex="1" connectable="0">
          <mxGeometry width="157.5" height="40" as="geometry" />
        </mxCell>
        <mxCell id="_0cxiAFkDxXxnWQI2h8j-2" value="" style="group" parent="_0cxiAFkDxXxnWQI2h8j-1" vertex="1" connectable="0">
          <mxGeometry width="157.5" height="40" as="geometry" />
        </mxCell>
        <mxCell id="7ZSRkaOjpOQk4Y71W81P-4" value="" style="verticalLabelPosition=bottom;verticalAlign=top;html=1;shape=card;whiteSpace=wrap;size=20;arcSize=12;container=1;" parent="_0cxiAFkDxXxnWQI2h8j-2" vertex="1">
          <mxGeometry width="155" height="40" as="geometry" />
        </mxCell>
        <mxCell id="7ZSRkaOjpOQk4Y71W81P-5" value="&lt;font style=&quot;font-size: 12px;&quot;&gt;Dígito de Escolha&lt;/font&gt;" style="text;html=1;align=center;verticalAlign=middle;resizable=0;points=[];autosize=1;strokeColor=none;fillColor=none;" parent="_0cxiAFkDxXxnWQI2h8j-2" vertex="1">
          <mxGeometry x="22.5" y="10" width="120" height="30" as="geometry" />
        </mxCell>
        <mxCell id="CyyOgFIPkW3TxfJR1gr0-6" value="" style="endArrow=classic;html=1;rounded=0;entryX=0.5;entryY=0;entryDx=0;entryDy=0;entryPerimeter=0;exitX=0.468;exitY=0.879;exitDx=0;exitDy=0;exitPerimeter=0;" parent="1" source="7ZSRkaOjpOQk4Y71W81P-2" target="7ZSRkaOjpOQk4Y71W81P-4" edge="1">
          <mxGeometry width="50" height="50" relative="1" as="geometry">
            <mxPoint x="660" y="240" as="sourcePoint" />
            <mxPoint x="710" y="190" as="targetPoint" />
          </mxGeometry>
        </mxCell>
        <mxCell id="_0cxiAFkDxXxnWQI2h8j-9" value="V" style="text;html=1;align=center;verticalAlign=middle;resizable=0;points=[];autosize=1;strokeColor=none;fillColor=none;" parent="1" vertex="1">
          <mxGeometry x="470" y="590" width="30" height="30" as="geometry" />
        </mxCell>
        <mxCell id="_0cxiAFkDxXxnWQI2h8j-10" value="V" style="text;html=1;align=center;verticalAlign=middle;resizable=0;points=[];autosize=1;strokeColor=none;fillColor=none;" parent="1" vertex="1">
          <mxGeometry x="835" y="420" width="30" height="30" as="geometry" />
        </mxCell>
        <mxCell id="_0cxiAFkDxXxnWQI2h8j-11" value="F" style="text;html=1;align=center;verticalAlign=middle;resizable=0;points=[];autosize=1;strokeColor=none;fillColor=none;" parent="1" vertex="1">
          <mxGeometry x="355" y="598" width="30" height="30" as="geometry" />
        </mxCell>
        <mxCell id="_0cxiAFkDxXxnWQI2h8j-12" value="F" style="text;html=1;align=center;verticalAlign=middle;resizable=0;points=[];autosize=1;strokeColor=none;fillColor=none;" parent="1" vertex="1">
          <mxGeometry x="715" y="428" width="30" height="30" as="geometry" />
        </mxCell>
        <mxCell id="Tqs_XFMELXFWNRah4-Qo-2" value="" style="edgeStyle=orthogonalEdgeStyle;rounded=0;orthogonalLoop=1;jettySize=auto;html=1;" parent="1" source="Tqs_XFMELXFWNRah4-Qo-1" target="7ZSRkaOjpOQk4Y71W81P-2" edge="1">
          <mxGeometry relative="1" as="geometry" />
        </mxCell>
        <mxCell id="Tqs_XFMELXFWNRah4-Qo-1" value="Configurações" style="ellipse;whiteSpace=wrap;html=1;" parent="1" vertex="1">
          <mxGeometry x="600" y="165" width="80" height="80" as="geometry" />
        </mxCell>
        <mxCell id="6_dY7EO-FM7pXmTh0XZ4-2" value="" style="endArrow=classic;html=1;rounded=0;entryX=1;entryY=0.5;entryDx=0;entryDy=0;exitX=0;exitY=0.5;exitDx=0;exitDy=0;" edge="1" parent="1" source="7ZSRkaOjpOQk4Y71W81P-15" target="7ZSRkaOjpOQk4Y71W81P-30">
          <mxGeometry width="50" height="50" relative="1" as="geometry">
            <mxPoint x="450" y="550" as="sourcePoint" />
            <mxPoint x="500" y="500" as="targetPoint" />
          </mxGeometry>
        </mxCell>
        <mxCell id="6_dY7EO-FM7pXmTh0XZ4-7" value="" style="edgeStyle=orthogonalEdgeStyle;rounded=0;orthogonalLoop=1;jettySize=auto;html=1;" edge="1" parent="1" source="6_dY7EO-FM7pXmTh0XZ4-4" target="7ZSRkaOjpOQk4Y71W81P-2">
          <mxGeometry relative="1" as="geometry" />
        </mxCell>
        <mxCell id="6_dY7EO-FM7pXmTh0XZ4-4" value="&lt;div&gt;&lt;span style=&quot;background-color: transparent; color: light-dark(rgb(0, 0, 0), rgb(255, 255, 255));&quot;&gt;Reinício Configurações&lt;/span&gt;&lt;/div&gt;" style="ellipse;whiteSpace=wrap;html=1;" vertex="1" parent="1">
          <mxGeometry x="752.5" y="60" width="80" height="80" as="geometry" />
        </mxCell>
        <mxCell id="6_dY7EO-FM7pXmTh0XZ4-5" value="&lt;div&gt;&lt;span style=&quot;background-color: transparent; color: light-dark(rgb(0, 0, 0), rgb(255, 255, 255));&quot;&gt;Reinício Configurações&lt;/span&gt;&lt;/div&gt;" style="ellipse;whiteSpace=wrap;html=1;" vertex="1" parent="1">
          <mxGeometry x="100" y="580" width="80" height="80" as="geometry" />
        </mxCell>
        <mxCell id="6_dY7EO-FM7pXmTh0XZ4-6" value="" style="endArrow=classic;html=1;rounded=0;entryX=1;entryY=0.5;entryDx=0;entryDy=0;exitX=0;exitY=0.5;exitDx=0;exitDy=0;" edge="1" parent="1" source="7ZSRkaOjpOQk4Y71W81P-30" target="6_dY7EO-FM7pXmTh0XZ4-5">
          <mxGeometry width="50" height="50" relative="1" as="geometry">
            <mxPoint x="450" y="430" as="sourcePoint" />
            <mxPoint x="500" y="380" as="targetPoint" />
          </mxGeometry>
        </mxCell>
      </root>
    </mxGraphModel>
  </diagram>
</mxfile>
